<svg width="1400" height="760" viewBox="0 0 1400 760" fill="none" xmlns="http://www.w3.org/2000/svg">
  <defs>
    <linearGradient id="g" x1="210" y1="130" x2="1180" y2="650" gradientUnits="userSpaceOnUse">
      <stop stop-color="#0A6B43"/>
      <stop offset="1" stop-color="#0FB7AB"/>
    </linearGradient>
    <linearGradient id="g2" x1="0" y1="0" x2="1400" y2="760" gradientUnits="userSpaceOnUse">
      <stop stop-color="#EFFFF6"/>
      <stop offset="1" stop-color="#E8FDFF"/>
    </linearGradient>
    <filter id="shadow" x="-20" y="-20" width="1440" height="800" color-interpolation-filters="sRGB">
      <feDropShadow dx="0" dy="18" stdDeviation="28" flood-color="#000" flood-opacity="0.12"/>
    </filter>
  </defs>

  <rect x="0" y="0" width="1400" height="760" rx="36" fill="url(#g2)"/>

  <g filter="url(#shadow)">
    <rect x="120" y="120" width="1160" height="520" rx="28" fill="white" stroke="rgba(11,15,20,0.10)"/>

    <rect x="160" y="160" width="440" height="34" rx="12" fill="rgba(11,15,20,0.06)"/>
    <rect x="160" y="210" width="340" height="18" rx="9" fill="rgba(11,15,20,0.06)"/>
    <rect x="160" y="238" width="300" height="18" rx="9" fill="rgba(11,15,20,0.06)"/>

    <rect x="160" y="300" width="520" height="300" rx="22" fill="rgba(11,15,20,0.04)" stroke="rgba(11,15,20,0.08)"/>
    <rect x="200" y="340" width="250" height="18" rx="9" fill="rgba(11,15,20,0.10)"/>
    <rect x="200" y="372" width="360" height="14" rx="7" fill="rgba(11,15,20,0.08)"/>
    <rect x="200" y="396" width="320" height="14" rx="7" fill="rgba(11,15,20,0.08)"/>

    <rect x="720" y="300" width="520" height="180" rx="22" fill="rgba(11,15,20,0.04)" stroke="rgba(11,15,20,0.08)"/>
    <path d="M760 440C820 370 900 500 980 420C1040 360 1120 420 1200 360" stroke="url(#g)" stroke-width="10" stroke-linecap="round"/>
    <circle cx="760" cy="440" r="9" fill="#0A6B43"/>
    <circle cx="980" cy="420" r="9" fill="#0FB7AB"/>
    <circle cx="1200" cy="360" r="9" fill="#0A6B43"/>

    <rect x="720" y="510" width="520" height="90" rx="22" fill="url(#g)" opacity="0.14" stroke="rgba(11,15,20,0.08)"/>
    <rect x="760" y="540" width="240" height="18" rx="9" fill="rgba(11,15,20,0.12)"/>
    <rect x="760" y="566" width="340" height="14" rx="7" fill="rgba(11,15,20,0.10)"/>
  </g>

  <circle cx="225" cy="78" r="8" fill="#0A6B43"/>
  <circle cx="255" cy="78" r="8" fill="#0FB7AB"/>
  <circle cx="285" cy="78" r="8" fill="rgba(11,15,20,0.20)"/>
</svg>
